<?xml version="1.0" encoding="UTF-8"?>
<!DOCTYPE svg PUBLIC "-//W3C//DTD SVG 1.1//EN" "http://www.w3.org/Graphics/SVG/1.1/DTD/svg11.dtd">
<!-- Creator: CorelDRAW -->
<svg xmlns="http://www.w3.org/2000/svg" xml:space="preserve" width="11.1215mm" height="7.9289mm" version="1.1" style="shape-rendering:geometricPrecision; text-rendering:geometricPrecision; image-rendering:optimizeQuality; fill-rule:evenodd; clip-rule:evenodd"
viewBox="0 0 9.61 6.85"
 xmlns:xlink="http://www.w3.org/1999/xlink"
 xmlns:xodm="http://www.corel.com/coreldraw/odm/2003">
 <defs>
  <style type="text/css">
   <![CDATA[
    .fil0 {fill:#0D5A93}
   ]]>
  </style>
 </defs>
 <g id="Camada_x0020_1">
  <metadata id="CorelCorpID_0Corel-Layer"/>
  <path class="fil0" d="M0.92 6.44c-0.64,-1.32 -0.31,-0.64 -0.92,-1.88 -0.05,-0.43 0.17,-0.24 0.29,-0.16 0.64,0.33 1.26,0.56 1.8,0.5 0.8,-0.13 1.07,-0.16 1.5,-0.17l0.3 -0.82 -0.35 0 0.03 -0.14 3.32 -0c0.12,0.01 0.16,-0.08 0.07,-0.15l-3.58 -0.01 0.05 -0.15 0.63 0 0.51 0 1.91 0c-0,-0 -0,-0.01 -0,-0.01l0 -2.21c-0.33,0.09 -0.39,0.42 -0.89,0.58l-0.02 -0.69c0.16,-0.24 0.34,-0.12 0.47,-0.19 0.18,-0.1 0.29,-0.27 0.44,-0.37l0 -0.11c0,-0.04 0.03,-0.07 0.07,-0.07 0.04,0 0.07,0.03 0.07,0.07l0 2.99c0,0 -0,0.01 -0,0.01l0.13 0c-0.01,-0.01 -0.01,-0.02 -0.01,-0.04l0 -3.33c0,-0.04 0.04,-0.08 0.08,-0.08 0.04,0 0.08,0.04 0.08,0.08l0 3.33c0,0.01 -0,0.03 -0.01,0.04l0.02 0 0.13 -0.01c0.28,0.16 0.18,0.36 -0.03,0.47l-0.12 -0 0.04 1.12 1.75 -0.13 0.03 0 0 -1.13 0.17 0 0 0.02c0.44,-0.05 0.34,0.59 0.75,0l0 0.61c-0.23,0.11 -0.46,-0.19 -0.75,-0.02l0 0.51 0.01 0c0.31,-0.03 0.34,0.41 -0.03,0.47l-0.29 1.05c-2.91,0.61 -5.39,0.5 -7.63,0zm8.01 -1.37c-1.86,0.08 -6.62,0.65 -8.71,-0.53l-0.04 0.05c1.56,1.3 5.99,0.84 8.72,0.64l0.03 -0.17zm-2.36 -1.15l0.14 0c0.02,0 0.03,0.01 0.03,0.03l0 1.08c0,0.02 -0.01,0.03 -0.03,0.03l-0.14 0c-0.02,0 -0.03,-0.01 -0.03,-0.03l0 -1.08c0,-0.02 0.01,-0.03 0.03,-0.03zm-1.16 0.22c0.17,0 0.31,0.14 0.31,0.31 0,0.17 -0.14,0.31 -0.31,0.31 -0.17,0 -0.31,-0.14 -0.31,-0.31 0,-0.17 0.14,-0.31 0.31,-0.31zm-1 0c0.17,0 0.31,0.14 0.31,0.31 0,0.17 -0.14,0.31 -0.31,0.31 -0.17,0 -0.31,-0.14 -0.31,-0.31 0,-0.17 0.14,-0.31 0.31,-0.31z"/>
 </g>
</svg>
