<?xml version="1.0" encoding="UTF-8"?>
<!DOCTYPE svg PUBLIC "-//W3C//DTD SVG 1.1//EN" "http://www.w3.org/Graphics/SVG/1.1/DTD/svg11.dtd">
<!-- Creator: CorelDRAW -->
<svg xmlns="http://www.w3.org/2000/svg" xml:space="preserve" width="28.5368mm" height="9.198mm" version="1.1" style="shape-rendering:geometricPrecision; text-rendering:geometricPrecision; image-rendering:optimizeQuality; fill-rule:evenodd; clip-rule:evenodd"
viewBox="0 0 62.4 20.11"
 xmlns:xlink="http://www.w3.org/1999/xlink"
 xmlns:xodm="http://www.corel.com/coreldraw/odm/2003">
 <defs>
  <style type="text/css">
   <![CDATA[
    .fil0 {fill:#0D5A93}
   ]]>
  </style>
 </defs>
 <g id="Camada_x0020_1">
  <metadata id="CorelCorpID_0Corel-Layer"/>
  <path class="fil0" d="M21.8 16.29l0.83 0 -1.51 -3.09c-0.64,1.69 -0.82,2.22 -2.72,3.52 -0.09,0.11 -0.59,0.14 -0.32,0.31l8.94 0 0 -0.02 0.27 0c0.12,0 0.21,-0.1 0.21,-0.21l0 0c0,-0.09 -0.06,-0.17 -0.15,-0.2l-5.57 0c-0.09,0 -0.16,-0.07 -0.16,-0.16l0 0c0,-0.09 0.07,-0.16 0.16,-0.16zm8.58 -8.82l0.18 0 0 1.24 -1.6 -0 -0.12 0.38 9.07 0.04c0.22,0.18 0.11,0.4 -0.19,0.39l-8.4 0 -0.08 0.35 0.89 -0 -0.75 2.08c-1.08,0.04 -1.77,0.11 -3.79,0.44 -1.37,0.16 -2.93,-0.42 -4.55,-1.26 -0.3,-0.2 -0.85,-0.67 -0.73,0.41l0.6 1.24c-1.07,3.33 -2.96,4.17 -5.02,4.49l-5.74 0c-0.11,0 -0.2,0.09 -0.2,0.2l0 0c0,0.11 0.09,0.2 0.2,0.2l49.69 0c0.11,0 0.2,-0.09 0.2,-0.2l0 0c0,-0.11 -0.09,-0.2 -0.2,-0.2l-13.94 0c0,-0.01 0,-0.02 0,-0.02l0 0c0,-0.11 -0.09,-0.2 -0.2,-0.2l-11.64 0 0 -0.02 -0.12 0c-0.12,0 -0.21,-0.1 -0.21,-0.21l0 0c0,-0.09 0.06,-0.17 0.15,-0.2l8.33 0c0.09,0 0.16,-0.07 0.16,-0.16l0 0c0,-0.09 -0.07,-0.16 -0.16,-0.16l-0.28 0 0.74 -2.66c0.93,-0.15 0.86,-1.28 0.07,-1.2l-0.02 -0 0 -1.29c0.73,-0.42 1.32,0.32 1.9,0.05l0 -1.55c-1.03,1.47 -0.79,-0.15 -1.9,-0.01l0 -0.06 -0.42 0 0 2.85 -0.07 -0 -4.42 0.32 -0.11 -2.84 0.3 0c0.52,-0.29 0.79,-0.8 0.08,-1.2l-0.32 0.03 -0.05 -0c0.01,-0.03 0.02,-0.06 0.02,-0.09l0 -8.42c0,-0.11 -0.09,-0.2 -0.2,-0.2l0 0c-0.11,0 -0.2,0.09 -0.2,0.2l0 8.42c0,0.03 0.01,0.06 0.02,0.09l-0.34 -0c0,-0.01 0,-0.02 0,-0.02l0 -7.55c0,-0.09 -0.07,-0.16 -0.16,-0.16 -0.09,0 -0.16,0.07 -0.16,0.16l0 0.28c-0.4,0.25 -0.67,0.67 -1.12,0.93 -0.34,0.19 -0.78,-0.12 -1.19,0.48l0.05 1.74c1.27,-0.42 1.44,-1.25 2.26,-1.47l0 5.6c0,0.01 0,0.02 0,0.02l-4.82 -0.01 0 -1.24 0.21 0 0 -1.02c0,-0.46 -0.38,-0.84 -0.84,-0.84 -0.46,0 -0.84,0.38 -0.84,0.84l0 1.02zm0.63 1.24l0.02 -0.78c0.01,-0.09 0.08,-0.16 0.18,-0.16l0 0c0.09,0 0.17,0.07 0.18,0.16l0.02 0.78 -0.39 -0zm0.2 -4.33c0.3,0 0.54,0.24 0.54,0.54 0,0.3 -0.24,0.54 -0.54,0.54 -0.3,0 -0.54,-0.24 -0.54,-0.54 0,-0.3 0.24,-0.54 0.54,-0.54zm11.68 8.45c-4.7,0.21 -16.74,1.63 -22.04,-1.34l-0.1 0.14c3.96,3.28 15.15,2.13 22.06,1.62l0.08 -0.42zm-5.97 -2.92l0.35 0c0.05,0 0.08,0.04 0.08,0.08l0 2.74c0,0.05 -0.04,0.08 -0.08,0.08l-0.35 0c-0.05,0 -0.08,-0.04 -0.08,-0.08l0 -2.74c0,-0.05 0.04,-0.08 0.08,-0.08zm-2.93 0.55c0.44,0 0.79,0.35 0.79,0.79 0,0.44 -0.35,0.79 -0.79,0.79 -0.44,0 -0.79,-0.35 -0.79,-0.79 0,-0.44 0.35,-0.79 0.79,-0.79zm-2.52 0c0.44,0 0.79,0.35 0.79,0.79 0,0.44 -0.35,0.79 -0.79,0.79 -0.44,0 -0.79,-0.35 -0.79,-0.79 0,-0.44 0.35,-0.79 0.79,-0.79zm-31.25 6.8l9.1 0c0.11,0 0.2,0.09 0.2,0.2l0 0c0,0.11 -0.09,0.2 -0.2,0.2l-9.1 0c-0.11,0 -0.2,-0.09 -0.2,-0.2l0 0c0,-0.11 0.09,-0.2 0.2,-0.2zm34.68 2.29l2.93 0c0.16,0 0.28,0.13 0.28,0.28l0 0c0,0.16 -0.13,0.28 -0.28,0.28l-2.93 0c-0.16,0 -0.28,-0.13 -0.28,-0.28l0 -0c0,-0.16 0.13,-0.28 0.28,-0.28zm-6.73 -0.19l4.7 0c0.21,0 0.38,0.17 0.38,0.38l0 0c0,0.21 -0.17,0.38 -0.38,0.38l-4.7 0c-0.21,0 -0.38,-0.17 -0.38,-0.38l0 -0c0,-0.21 0.17,-0.38 0.38,-0.38zm13.77 -1.15l0.02 0c0.21,0 0.38,0.17 0.38,0.38l0 0c0,0.21 -0.17,0.38 -0.38,0.38l-0.02 0c-0.21,0 -0.38,-0.17 -0.38,-0.38l0 0c0,-0.21 0.17,-0.38 0.38,-0.38zm-21.22 0l20.11 0c0.21,0 0.38,0.17 0.38,0.38l0 0c0,0.21 -0.17,0.38 -0.38,0.38l-20.11 0c-0.21,0 -0.38,-0.17 -0.38,-0.38l0 0c0,-0.21 0.17,-0.38 0.38,-0.38zm41.05 -0.95l0.44 0c0.11,0 0.2,0.09 0.2,0.2l0 0c0,0.11 -0.09,0.2 -0.2,0.2l-0.44 0c-0.11,0 -0.2,-0.09 -0.2,-0.2l0 0c0,-0.11 0.09,-0.2 0.2,-0.2zm-1.09 0l0.44 0c0.11,0 0.2,0.09 0.2,0.2l0 0c0,0.11 -0.09,0.2 -0.2,0.2l-0.44 0c-0.11,0 -0.2,-0.09 -0.2,-0.2l0 0c0,-0.11 0.09,-0.2 0.2,-0.2z"/>
 </g>
</svg>
